<svg width="70" height="24" viewBox="0 0 70 24" fill="none" xmlns="http://www.w3.org/2000/svg">
<g id="logo">
<path d="M60.2649 0H65.3642V4.98113H60.2649V0Z" fill="white"/>
<path d="M0 2.71698V4.98113H9.7351V9.96226H7.41722V12.2264H4.63576V14.4906H2.31788V16.7547H0V24H14.8344V21.7358H5.09934V16.7547H7.41722V14.4906H9.7351V12.2264H12.5166V9.96226H14.8344V2.71698H0Z" fill="white"/>
<path fill-rule="evenodd" clip-rule="evenodd" d="M30.596 7.69811H21.3245V9.96226H18.543V21.7358H21.3245V24H30.596V21.7358H33.3775V9.96226H30.596V7.69811ZM28.2781 9.96226V21.7358H23.6424V9.96226H28.2781Z" fill="white"/>
<path d="M42.1854 2.71698H51.9205V4.98113H44.9669V12.2264H51.9205V14.4906H44.9669V24H39.8675V14.4906H37.5497V12.2264H39.8675V4.98113H42.1854V2.71698Z" fill="white"/>
<path d="M55.6291 7.24528V9.50943H60.2649V21.7358H55.6291V24H70V21.7358H65.3642V7.24528H55.6291Z" fill="white"/>
</g>
</svg>
