<svg width="24" height="24" viewBox="0 0 24 24" fill="none" xmlns="http://www.w3.org/2000/svg">
<g id="external-link">
<path id="Vector (Stroke)" fill-rule="evenodd" clip-rule="evenodd" d="M13 4.5C13 3.67157 13.6716 3 14.5 3H19.5C20.3284 3 21 3.67157 21 4.5V9.5C21 10.3284 20.3284 11 19.5 11C18.6716 11 18 10.3284 18 9.5V8.12132L11.394 14.7273C10.8082 15.3131 9.85846 15.3131 9.27267 14.7273C8.68689 14.1415 8.68689 13.1918 9.27267 12.606L15.8787 6H14.5C13.6716 6 13 5.32843 13 4.5ZM6.16667 8.5C6.12246 8.5 6.08007 8.51756 6.04882 8.54882C6.01756 8.58007 6 8.62246 6 8.66667V17.8333C6 17.8775 6.01756 17.9199 6.04882 17.9512C6.08007 17.9824 6.12247 18 6.16667 18H15.3333C15.3775 18 15.4199 17.9824 15.4512 17.9512C15.4824 17.9199 15.5 17.8775 15.5 17.8333V13.5C15.5 12.6716 16.1716 12 17 12C17.8284 12 18.5 12.6716 18.5 13.5V17.8333C18.5 18.6732 18.1664 19.4786 17.5725 20.0725C16.9786 20.6664 16.1732 21 15.3333 21H6.16667C5.32681 21 4.52136 20.6664 3.9275 20.0725C3.33363 19.4786 3 18.6732 3 17.8333V8.66667C3 7.82681 3.33363 7.02136 3.9275 6.4275C4.52136 5.83363 5.32681 5.5 6.16667 5.5H10.5C11.3284 5.5 12 6.17157 12 7C12 7.82843 11.3284 8.5 10.5 8.5H6.16667Z" fill="white"/>
</g>
</svg>
