<svg xmlns="http://www.w3.org/2000/svg" width="40" height="40" viewBox="0 0 40 40" fill="none">
  <g clip-path="url(#clip0_1_9162)">
    <path d="M20.7408 39.2595C31.3774 39.2595 40 30.6368 40 20.0002C40 9.36363 31.3774 0.740967 20.7408 0.740967C10.1042 0.740967 1.48151 9.36363 1.48151 20.0002C1.48151 30.6368 10.1042 39.2595 20.7408 39.2595Z" fill="#C1622A"/>
    <path d="M31.6029 5.21608C28.2604 2.42235 23.9562 0.740967 19.2593 0.740967C8.62267 0.740967 0 9.36363 0 20.0002C0 28.3055 5.25711 35.383 12.6252 38.0865L31.6029 5.21608Z" fill="#F6D355"/>
    <path d="M12.6252 38.0865L31.6029 5.21606C35.8297 8.74895 38.5185 14.0605 38.5185 20.0002C38.5185 30.6368 29.8958 39.2595 19.2593 39.2595C16.928 39.2595 14.6934 38.8454 12.6252 38.0865Z" fill="#F1B82B"/>
    <path d="M19.2593 34.8148C27.4413 34.8148 34.0741 28.182 34.0741 20C34.0741 11.818 27.4413 5.18518 19.2593 5.18518C11.0773 5.18518 4.44446 11.818 4.44446 20C4.44446 28.182 11.0773 34.8148 19.2593 34.8148Z" fill="#E18637"/>
    <path d="M11.7691 32.7846C8.42483 29.9991 6.29631 25.8037 6.29631 21.1111C6.29631 12.7246 13.0949 5.92592 21.4815 5.92592C22.6871 5.92592 23.8599 6.0664 24.9844 6.33192C23.2231 5.59329 21.2888 5.18518 19.2593 5.18518C11.0773 5.18518 4.44446 11.818 4.44446 20C4.44446 25.4493 7.38661 30.2115 11.7691 32.7846Z" fill="#C1622A"/>
    <path d="M6.68912 8.41363C6.90608 8.63059 7.55097 8.33745 8.12953 7.7589C8.70808 7.18034 9.00121 6.53545 8.78426 6.3185C8.5673 6.10154 7.92241 6.39467 7.34385 6.97322C6.7653 7.55178 6.47217 8.19667 6.68912 8.41363Z" fill="white"/>
    <path d="M5.07669 10.1983C5.22133 10.3429 5.57309 10.2256 5.86237 9.93636C6.15164 9.64708 6.2689 9.29532 6.12426 9.15069C5.97962 9.00605 5.62786 9.1233 5.33858 9.41258C5.04931 9.70185 4.93205 10.0536 5.07669 10.1983Z" fill="white"/>
    <path d="M31.0027 32.2035C31.1473 32.3481 31.6163 32.1136 32.0502 31.6797C32.4842 31.2458 32.7187 30.7768 32.574 30.6321C32.4294 30.4875 31.9604 30.722 31.5265 31.1559C31.0925 31.5898 30.858 32.0588 31.0027 32.2035Z" fill="white"/>
    <path d="M33.0939 30.1757C33.1662 30.248 33.4008 30.1307 33.6177 29.9138C33.8347 29.6968 33.9519 29.4623 33.8796 29.39C33.8073 29.3177 33.5728 29.4349 33.3558 29.6519C33.1389 29.8688 33.0216 30.1033 33.0939 30.1757Z" fill="white"/>
    <path d="M13.7037 28.8888C12.963 27.037 12.4074 25.8482 12.4074 23.1481C12.4074 19.4444 16.2963 17.037 22.037 17.037C26.2963 17.037 29.6296 19.6296 29.6296 22.7777C29.6296 25.9259 29.4444 27.7777 29.2593 28.8888H27.4074C27.4074 28.3333 27.2222 27.4074 27.2222 25.9259C26.1111 27.037 22.4074 27.4074 20.9259 25.9259C20.9259 26.8518 21.2963 27.7777 20.9259 28.8888H19.2593C19.2593 27.4074 18.8889 27.2222 18.8889 26.1111C18.3333 27.5925 15.9259 27.7777 15 25.9259C15 27.2222 15.1852 27.9629 15.3704 28.8888H13.7037Z" fill="#F1B82B"/>
    <path d="M17.7778 21.1112C17.7778 20.2931 18.4411 19.6298 19.2593 19.6298H21.2963V20.3705C21.2963 21.1887 20.633 21.852 19.8148 21.852H17.7778V21.1112Z" fill="#C1622A"/>
    <path fill-rule="evenodd" clip-rule="evenodd" d="M17.5 21.1111C17.5 20.1394 18.2876 19.3518 19.2593 19.3518H21.2963C21.4497 19.3518 21.5741 19.4762 21.5741 19.6296V20.3703C21.5741 21.342 20.7864 22.1296 19.8148 22.1296H17.7778C17.6244 22.1296 17.5 22.0052 17.5 21.8518V21.1111ZM19.2593 19.9074C18.5945 19.9074 18.0556 20.4463 18.0556 21.1111V21.574H19.8148C20.4796 21.574 21.0185 21.0351 21.0185 20.3703V19.9074H19.2593Z" fill="#C1622A"/>
    <path d="M18.3333 20.7405C18.3333 19.9223 18.9966 19.259 19.8148 19.259H21.2963V19.9998C21.2963 20.818 20.633 21.4813 19.8148 21.4813H18.3333V20.7405Z" fill="#C1622A"/>
    <path fill-rule="evenodd" clip-rule="evenodd" d="M18.0555 20.7408C18.0555 19.7692 18.8432 18.9816 19.8148 18.9816H21.2963C21.4497 18.9816 21.5741 19.1059 21.5741 19.2593V20.0001C21.5741 20.9717 20.7864 21.7593 19.8148 21.7593H18.3333C18.1799 21.7593 18.0555 21.635 18.0555 21.4816V20.7408ZM19.8148 19.5371C19.15 19.5371 18.6111 20.076 18.6111 20.7408V21.2038H19.8148C20.4796 21.2038 21.0185 20.6649 21.0185 20.0001V19.5371H19.8148Z" fill="#F6D355"/>
    <path fill-rule="evenodd" clip-rule="evenodd" d="M14.8148 21.8519C14.0989 21.8519 13.5185 22.4323 13.5185 23.1482C13.5185 23.8642 14.0989 24.4445 14.8148 24.4445C15.5307 24.4445 16.1111 23.8642 16.1111 23.1482C16.1111 22.4323 15.5307 21.8519 14.8148 21.8519ZM13.1481 23.1482C13.1481 22.2278 13.8943 21.4816 14.8148 21.4816C15.7353 21.4816 16.4815 22.2278 16.4815 23.1482C16.4815 24.0687 15.7353 24.8149 14.8148 24.8149C13.8943 24.8149 13.1481 24.0687 13.1481 23.1482Z" fill="#FC8D60"/>
    <path fill-rule="evenodd" clip-rule="evenodd" d="M14.8148 22.4071C14.4057 22.4071 14.0741 22.7388 14.0741 23.1479C14.0741 23.557 14.4057 23.8886 14.8148 23.8886C15.2239 23.8886 15.5556 23.557 15.5556 23.1479C15.5556 22.7388 15.2239 22.4071 14.8148 22.4071ZM12.5926 23.1479C12.5926 21.9206 13.5875 20.9257 14.8148 20.9257C16.0421 20.9257 17.037 21.9206 17.037 23.1479C17.037 24.3752 16.0421 25.3701 14.8148 25.3701C13.5875 25.3701 12.5926 24.3752 12.5926 23.1479ZM13.5185 23.1479C13.5185 22.432 14.0989 21.8516 14.8148 21.8516C15.5307 21.8516 16.1111 22.432 16.1111 23.1479C16.1111 23.8638 15.5307 24.4442 14.8148 24.4442C14.0989 24.4442 13.5185 23.8638 13.5185 23.1479ZM14.8148 21.4812C13.8943 21.4812 13.1481 22.2274 13.1481 23.1479C13.1481 24.0684 13.8943 24.8145 14.8148 24.8145C15.7353 24.8145 16.4815 24.0684 16.4815 23.1479C16.4815 22.2274 15.7353 21.4812 14.8148 21.4812Z" fill="#C1622A"/>
    <path d="M12.037 15.9262C12.753 15.9262 13.3333 16.2965 13.3333 17.0371C13.3333 17.7776 12.7778 18.1482 12.2222 18.1482C11.6667 18.1482 11.4815 17.778 11.4815 17.778C10.9259 17.778 10.3704 17.4073 10.3704 16.6667C10.3704 15.9262 10.7407 14.4447 10.1852 14.4447C9.81481 14.4447 10.3704 13.7037 10 12.963C10.1852 12.963 10.7407 12.9632 10.7407 13.5186C10.7407 15.0002 10.1852 15.9262 12.037 15.9262Z" fill="#FC8D60"/>
    <path fill-rule="evenodd" clip-rule="evenodd" d="M10.3997 16.1991C10.3828 16.3708 10.3704 16.5314 10.3704 16.6671C10.3704 17.4076 10.9259 17.7783 11.4815 17.7783C11.4815 17.7783 11.6667 18.1485 12.2222 18.1485C12.7778 18.1485 13.3333 17.778 13.3333 17.0374C13.3333 16.2968 12.753 15.9265 12.037 15.9265C11.6629 15.9265 11.387 15.8887 11.1849 15.8161C10.5923 15.6033 10.635 15.0916 10.6962 14.3579C10.7047 14.255 10.7137 14.1477 10.7213 14.0362C10.725 13.981 10.7285 13.9247 10.7314 13.8675C10.7371 13.7551 10.7407 13.6388 10.7407 13.5189C10.7407 12.9635 10.1852 12.9634 10 12.9634C10 12.9633 10 12.9634 10 12.9634C10.0947 13.1526 10.1288 13.342 10.1335 13.5189C10.1351 13.5822 10.133 13.6439 10.1285 13.7035C10.1283 13.7058 10.1281 13.7081 10.1279 13.7104C10.1184 13.8314 10.0993 13.9433 10.0825 14.0415C10.0407 14.286 10.0136 14.445 10.1852 14.445C10.588 14.445 10.504 15.2239 10.4274 15.9345C10.4177 16.0244 10.4082 16.1131 10.3997 16.1991ZM9.75056 15.0777C9.68301 15.0405 9.61601 14.9912 9.55345 14.9265C9.35819 14.7244 9.32164 14.4879 9.31323 14.3704C9.30453 14.2483 9.31856 14.135 9.32801 14.0681C9.33527 14.0166 9.34571 13.9554 9.35427 13.9054C9.35708 13.8888 9.35971 13.8735 9.36193 13.8602C9.40579 13.5971 9.40849 13.4367 9.33749 13.2946C9.22267 13.065 9.23493 12.7923 9.3699 12.5739C9.50486 12.3555 9.74327 12.2226 10 12.2226C10.0036 12.2226 10.008 12.2226 10.0126 12.2226C10.1101 12.2222 10.4261 12.2211 10.7317 12.3521C10.906 12.4268 11.1045 12.5551 11.2568 12.7715C11.4123 12.9924 11.4815 13.251 11.4815 13.5189C11.4815 13.8571 11.4549 14.1744 11.4336 14.4288C11.4292 14.4814 11.425 14.5312 11.4213 14.5781C11.3977 14.8791 11.3987 15.0264 11.4163 15.1117C11.4811 15.1391 11.6539 15.1857 12.037 15.1857C12.5126 15.1857 13.0135 15.3078 13.4126 15.6228C13.8337 15.9552 14.0741 16.4515 14.0741 17.0374C14.0741 17.6087 13.8524 18.0917 13.4783 18.4243C13.1177 18.7448 12.6579 18.8893 12.2222 18.8893C11.7646 18.8893 11.4186 18.732 11.1809 18.542C11.157 18.5229 11.1345 18.5037 11.1133 18.4845C10.7965 18.4246 10.4852 18.2849 10.2254 18.0539C9.85127 17.7213 9.62964 17.2384 9.62964 16.6671C9.62964 16.4353 9.65786 16.1635 9.68304 15.9285C9.6856 15.9046 9.68816 15.8809 9.69067 15.8574C9.7149 15.6324 9.73701 15.4271 9.7463 15.2413C9.74938 15.1802 9.75075 15.1257 9.75056 15.0777Z" fill="#C1622A"/>
    <path d="M14.0741 17.5931C14.0741 16.059 15.3178 14.8153 16.8519 14.8153C17.7724 14.8153 18.5185 15.5615 18.5185 16.482V22.2227C18.5185 23.0409 17.8552 23.7042 17.0371 23.7042H15.5556C14.7374 23.7042 14.0741 23.0409 14.0741 22.2227V17.5931Z" fill="#F1B82B"/>
    <path fill-rule="evenodd" clip-rule="evenodd" d="M14.872 18.3903C16.6385 17.2772 19.121 16.6666 22.037 16.6666C26.4015 16.6666 30 19.3381 30 22.7777C30 25.9394 29.8141 27.8127 29.6246 28.9497C29.5948 29.1283 29.4403 29.2592 29.2593 29.2592H27.4074C27.2029 29.2592 27.037 29.0934 27.037 28.8888C27.037 28.6981 27.013 28.4603 26.9807 28.1397C26.9699 28.0327 26.9582 27.9165 26.9461 27.7897C26.9148 27.4607 26.8833 27.0773 26.8658 26.6335C26.7896 26.6745 26.7106 26.7134 26.6293 26.7503C26.6537 26.8418 26.6667 26.9378 26.6667 27.037V27.4074C26.6667 28.021 26.1692 28.5185 25.5556 28.5185C24.9419 28.5185 24.4445 28.021 24.4445 27.4074V27.257C24.372 27.2618 24.2994 27.2655 24.2267 27.2682C24.1654 27.2705 24.1038 27.272 24.042 27.2728C24.0527 27.2727 24.0634 27.2725 24.0741 27.2723V27.4074C24.0741 28.021 23.5766 28.5185 22.963 28.5185C22.3493 28.5185 21.8519 28.021 21.8519 27.4074V27.037C21.8519 27.0001 21.8536 26.9637 21.8572 26.9278C21.6848 26.8628 21.5188 26.7878 21.3613 26.702L21.3719 26.7832C21.3937 26.9503 21.4168 27.1273 21.4335 27.3028C21.4823 27.8147 21.4854 28.3818 21.2773 29.006C21.2269 29.1572 21.0853 29.2592 20.9259 29.2592H19.2593C19.0547 29.2592 18.8889 29.0934 18.8889 28.8888C18.8889 28.1873 18.8025 27.802 18.7148 27.4509L18.7074 27.4216L18.6946 27.3707C18.6721 27.2817 18.6495 27.192 18.6282 27.098C18.2026 27.4543 17.6445 27.6388 17.0833 27.6388C16.509 27.6388 15.9176 27.4482 15.4255 27.0483C15.4807 27.5772 15.5716 28.0216 15.671 28.5077C15.6915 28.6084 15.7125 28.7108 15.7336 28.8162C15.7553 28.925 15.7272 29.0378 15.6568 29.1237C15.5865 29.2095 15.4813 29.2592 15.3704 29.2592H13.7037C13.5523 29.2592 13.4161 29.167 13.3598 29.0264C13.3113 28.905 13.2634 28.7861 13.2163 28.6693C12.5438 27.0004 12.037 25.7428 12.037 23.1481C12.037 21.146 13.0956 19.5097 14.872 18.3903ZM22.5528 27.1308C22.566 27.1337 22.5793 27.1365 22.5926 27.1393V27.4074C22.5926 27.6119 22.7584 27.7777 22.963 27.7777C23.1675 27.7777 23.3333 27.6119 23.3333 27.4074V27.2471C23.0702 27.2243 22.8082 27.1862 22.5528 27.1308ZM25.1852 27.1715V27.4074C25.1852 27.6119 25.351 27.7777 25.5556 27.7777C25.7601 27.7777 25.9259 27.6119 25.9259 27.4074V27.037C25.9259 27.0266 25.9255 27.0162 25.9246 27.006C25.6893 27.0733 25.4412 27.1288 25.1852 27.1715ZM15.2669 19.017C13.6637 20.0273 12.7778 21.4465 12.7778 23.1481C12.7778 25.5986 13.2408 26.7478 13.9038 28.3935L13.9541 28.5185H14.917C14.7651 27.7728 14.6296 27.046 14.6296 25.9259C14.6296 25.7541 14.7478 25.6049 14.9149 25.5654C15.0821 25.526 15.2545 25.6066 15.3313 25.7603C15.7287 26.5551 16.4303 26.8981 17.0833 26.8981C17.7486 26.8981 18.3292 26.5489 18.5421 25.981C18.605 25.8134 18.7788 25.7147 18.955 25.7466C19.1312 25.7786 19.2593 25.932 19.2593 26.1111C19.2593 26.5801 19.3294 26.8583 19.4138 27.1933L19.4334 27.2713C19.5142 27.5946 19.5961 27.9583 19.6216 28.5185H20.6459C20.7365 28.1261 20.7323 27.7527 20.6961 27.373C20.6807 27.2107 20.6603 27.055 20.6393 26.8939L20.6393 26.8935C20.6297 26.82 20.6199 26.7454 20.6105 26.6686C20.581 26.4302 20.5556 26.1806 20.5556 25.9259C20.5556 25.7761 20.6458 25.641 20.7842 25.5837C20.9226 25.5264 21.0819 25.5581 21.1878 25.664C21.8198 26.296 22.987 26.5729 24.1993 26.528C24.794 26.506 25.3739 26.4068 25.8656 26.2501C26.3638 26.0913 26.7411 25.8832 26.9603 25.664C27.0663 25.5581 27.2256 25.5264 27.364 25.5837C27.5024 25.641 27.5926 25.7761 27.5926 25.9259C27.5926 26.6506 27.6379 27.2398 27.6835 27.7195C27.6938 27.8273 27.7044 27.9317 27.7145 28.0323C27.7322 28.2068 27.7487 28.3697 27.7604 28.5185H28.9424C29.0799 27.5842 29.2098 26.1858 29.248 24.074H26.6667C24.2121 24.074 22.2222 22.0842 22.2222 19.6296V17.409C22.1608 17.4079 22.099 17.4074 22.037 17.4074C19.2124 17.4074 16.88 18.0005 15.2669 19.017ZM29.2593 22.7777C29.2593 22.9677 29.2586 23.1528 29.2573 23.3333H26.6667C24.6212 23.3333 22.963 21.6751 22.963 19.6296V17.4498C26.6391 17.7908 29.2593 20.1378 29.2593 22.7777Z" fill="#C1622A"/>
    <path fill-rule="evenodd" clip-rule="evenodd" d="M16.8519 15.1852C15.5223 15.1852 14.4445 16.263 14.4445 17.5926V22.2222C14.4445 22.8358 14.9419 23.3333 15.5556 23.3333H17.0371C17.6507 23.3333 18.1482 22.8358 18.1482 22.2222V16.4815C18.1482 15.7656 17.5678 15.1852 16.8519 15.1852Z" fill="#C1622A"/>
    <path fill-rule="evenodd" clip-rule="evenodd" d="M10.7407 18.519C10.7407 16.269 12.5648 14.4449 14.8148 14.4449H16.8518C17.9769 14.4449 18.8889 15.3569 18.8889 16.482V22.2227C18.8889 23.2455 18.0598 24.0746 17.037 24.0746H12.5926C11.5698 24.0746 10.7407 23.2455 10.7407 22.2227V18.519ZM16.8518 15.1857C15.5222 15.1857 14.4444 16.2635 14.4444 17.5931V22.2227C14.4444 22.8364 14.9419 23.3338 15.5555 23.3338H17.037C17.6507 23.3338 18.1481 22.8364 18.1481 22.2227V16.482C18.1481 15.7661 17.5678 15.1857 16.8518 15.1857Z" fill="#C1622A"/>
    <path d="M28.5185 21.4816C28.5185 21.6861 28.3527 21.8519 28.1481 21.8519C27.9436 21.8519 27.7778 21.6861 27.7778 21.4816C27.7778 21.277 27.9436 21.1112 28.1481 21.1112C28.3527 21.1112 28.5185 21.277 28.5185 21.4816Z" fill="white"/>
    <path d="M14.4445 17.5926C14.4445 16.263 15.5223 15.1852 16.8519 15.1852C17.5678 15.1852 18.1482 15.7656 18.1482 16.4815V22.2222C18.1482 22.8358 17.6507 23.3333 17.0371 23.3333H15.5556C14.9419 23.3333 14.4445 22.8358 14.4445 22.2222V17.5926Z" fill="#F1B82B"/>
    <path d="M14.4445 22.778V23.3336H17.0371C17.6507 23.3336 18.1482 22.8361 18.1482 22.2224V16.6669C18.1482 16.1113 17.963 15.741 17.7778 15.741C17.7778 15.9262 17.7778 15.7314 17.7778 15.8644V22.0373C17.7778 22.4463 17.4462 22.778 17.0371 22.778H14.4445Z" fill="#F6D355"/>
    <path fill-rule="evenodd" clip-rule="evenodd" d="M19.7855 16.1991C19.8023 16.3708 19.8148 16.5314 19.8148 16.6671C19.8148 17.4076 19.2592 17.7783 18.7037 17.7783C18.7037 17.7783 18.5185 18.1485 17.9629 18.1485C17.4074 18.1485 16.8518 17.778 16.8518 17.0374C16.8518 16.2968 17.4322 15.9265 18.1481 15.9265C18.5223 15.9265 18.7982 15.8887 19.0002 15.8161C19.5929 15.6033 19.5502 15.0916 19.489 14.3579C19.4804 14.255 19.4715 14.1477 19.4639 14.0362C19.4601 13.981 19.4567 13.9247 19.4538 13.8675C19.448 13.7551 19.4444 13.6388 19.4444 13.5189C19.4444 12.9635 19.9999 12.9634 20.1852 12.9634C20.1851 12.9634 20.1852 12.9633 20.1852 12.9634C20.0905 13.1526 20.0563 13.342 20.0517 13.5189C20.05 13.5822 20.0522 13.6439 20.0567 13.7035C20.0569 13.7058 20.057 13.7081 20.0572 13.7104C20.0667 13.8314 20.0859 13.9433 20.1027 14.0415C20.1444 14.286 20.1716 14.445 20 14.445C19.5972 14.445 19.6811 15.2239 19.7578 15.9345C19.7675 16.0244 19.777 16.1131 19.7855 16.1991ZM20.4346 15.0777C20.5022 15.0405 20.5692 14.9912 20.6317 14.9265C20.827 14.7244 20.8635 14.4879 20.8719 14.3704C20.8806 14.2483 20.8666 14.135 20.8572 14.0681C20.8499 14.0166 20.8395 13.9554 20.8309 13.9054C20.8281 13.8888 20.8255 13.8735 20.8232 13.8602C20.7794 13.5971 20.7767 13.4367 20.8477 13.2946C20.9625 13.065 20.9502 12.7923 20.8153 12.5739C20.6803 12.3555 20.4419 12.2226 20.1852 12.2226C20.1815 12.2226 20.1772 12.2226 20.1726 12.2226C20.075 12.2222 19.759 12.2211 19.4535 12.3521C19.2791 12.4268 19.0807 12.5551 18.9283 12.7715C18.7729 12.9924 18.7037 13.251 18.7037 13.5189C18.7037 13.8571 18.7303 14.1744 18.7516 14.4288C18.756 14.4814 18.7602 14.5312 18.7638 14.5781C18.7874 14.8791 18.7864 15.0264 18.7689 15.1117C18.704 15.1391 18.5312 15.1857 18.1481 15.1857C17.6725 15.1857 17.1717 15.3078 16.7726 15.6228C16.3515 15.9552 16.1111 16.4515 16.1111 17.0374C16.1111 17.6087 16.3328 18.0917 16.7069 18.4243C17.0674 18.7448 17.5272 18.8893 17.9629 18.8893C18.4206 18.8893 18.7666 18.732 19.0042 18.542C19.0281 18.5229 19.0506 18.5037 19.0718 18.4845C19.3886 18.4246 19.7 18.2849 19.9598 18.0539C20.3339 17.7213 20.5555 17.2384 20.5555 16.6671C20.5555 16.4353 20.5273 16.1635 20.5021 15.9285C20.4996 15.9046 20.497 15.8809 20.4945 15.8574C20.4703 15.6324 20.4482 15.4271 20.4389 15.2413C20.4358 15.1802 20.4344 15.1257 20.4346 15.0777Z" fill="#C1622A"/>
    <path d="M24.2593 19.4442C24.2593 19.342 24.3422 19.259 24.4445 19.259H26.8519C26.9541 19.259 27.0371 19.342 27.0371 19.4442V19.5583C27.0371 19.6041 27.0201 19.6482 26.9895 19.6822L25.4048 21.4431C25.3826 21.4677 25.3704 21.4996 25.3704 21.5326C25.3704 21.6065 25.4303 21.6664 25.5042 21.6664H26.8519C26.9541 21.6664 27.0371 21.7494 27.0371 21.8516C27.0371 21.9539 26.9541 22.0368 26.8519 22.0368H24.4445C24.3422 22.0368 24.2593 21.9539 24.2593 21.8516V21.6664V21.5523C24.2593 21.5066 24.2762 21.4624 24.3068 21.4284L25.6478 19.9385C25.7551 19.8193 25.6705 19.6294 25.5101 19.6294H24.4445C24.3422 19.6294 24.2593 19.5465 24.2593 19.4442Z" fill="#C1622A"/>
    <path d="M10 22.4075C10 21.6916 10.5804 21.1112 11.2963 21.1112H13.8889C14.6048 21.1112 15.1852 21.6916 15.1852 22.4075C15.1852 23.1234 14.6048 23.7038 13.8889 23.7038H11.2963C10.5804 23.7038 10 23.1234 10 22.4075Z" fill="#F6D355"/>
    <path fill-rule="evenodd" clip-rule="evenodd" d="M9.62964 22.4076C9.62964 21.4872 10.3758 20.741 11.2963 20.741H13.8889C14.8094 20.741 15.5556 21.4872 15.5556 22.4076C15.5556 23.3281 14.8094 24.0743 13.8889 24.0743H11.2963C10.3758 24.0743 9.62964 23.3281 9.62964 22.4076ZM11.2963 21.4817C10.7849 21.4817 10.3704 21.8963 10.3704 22.4076C10.3704 22.919 10.7849 23.3336 11.2963 23.3336H13.8889C14.4003 23.3336 14.8148 22.919 14.8148 22.4076C14.8148 21.8963 14.4003 21.4817 13.8889 21.4817H11.2963Z" fill="#C1622A"/>
    <path d="M11.8518 22.2225C11.8518 22.4271 11.686 22.5929 11.4815 22.5929C11.2769 22.5929 11.1111 22.4271 11.1111 22.2225C11.1111 22.018 11.2769 21.8522 11.4815 21.8522C11.686 21.8522 11.8518 22.018 11.8518 22.2225Z" fill="#C1622A"/>
    <path d="M13.3333 22.2225C13.3333 22.4271 13.1675 22.5929 12.963 22.5929C12.7584 22.5929 12.5926 22.4271 12.5926 22.2225C12.5926 22.018 12.7584 21.8522 12.963 21.8522C13.1675 21.8522 13.3333 22.018 13.3333 22.2225Z" fill="#C1622A"/>
    <path d="M12.963 19.5373C12.963 19.8953 12.7972 20.1855 12.5926 20.1855C12.388 20.1855 12.2222 19.8953 12.2222 19.5373C12.2222 19.1793 12.388 18.8892 12.5926 18.8892C12.7972 18.8892 12.963 19.1793 12.963 19.5373Z" fill="white"/>
    <path d="M12.963 17.4074C12.963 17.6119 12.7972 17.7777 12.5926 17.7777C12.388 17.7777 12.2222 17.6119 12.2222 17.4074C12.2222 17.2028 12.388 17.037 12.5926 17.037C12.7972 17.037 12.963 17.2028 12.963 17.4074Z" fill="white"/>
    <path d="M13.3333 16.8518C13.3333 16.9541 13.2504 17.037 13.1481 17.037C13.0459 17.037 12.963 16.9541 12.963 16.8518C12.963 16.7495 13.0459 16.6666 13.1481 16.6666C13.2504 16.6666 13.3333 16.7495 13.3333 16.8518Z" fill="white"/>
    <path d="M15.5556 19.5373C15.5556 19.8953 15.3897 20.1855 15.1852 20.1855C14.9806 20.1855 14.8148 19.8953 14.8148 19.5373C14.8148 19.1793 14.9806 18.8892 15.1852 18.8892C15.3897 18.8892 15.5556 19.1793 15.5556 19.5373Z" fill="white"/>
    <path d="M18.1482 15.9262C17.4322 15.9262 16.8519 16.2965 16.8519 17.0371C16.8519 17.7776 17.4074 18.1482 17.963 18.1482C18.5185 18.1482 18.7037 17.778 18.7037 17.778C19.2593 17.778 19.8148 17.4073 19.8148 16.6667C19.8148 15.9262 19.4445 14.4447 20 14.4447C20.3704 14.4447 19.8148 13.7037 20.1852 12.963C20 12.963 19.4445 12.9632 19.4445 13.5186C19.4445 15.0002 20 15.9262 18.1482 15.9262Z" fill="#FC8D60"/>
    <path d="M25.857 5.81745C25.8279 5.76437 25.8982 5.71323 25.9397 5.75734L27.2152 7.1123C27.2313 7.12941 27.257 7.13345 27.2776 7.12215L28.9094 6.22767C28.9624 6.19856 29.0136 6.26893 28.9695 6.31041L27.6145 7.58597C27.5974 7.60204 27.5933 7.62767 27.6046 7.64826L28.4991 9.28008C28.5282 9.33315 28.4579 9.3843 28.4164 9.34023L27.1409 7.98523C27.1247 7.96811 27.0991 7.96408 27.0785 7.97537L25.4467 8.86986C25.3936 8.89897 25.3425 8.8286 25.3866 8.78711L26.7416 7.5116C26.7587 7.49549 26.7627 7.46986 26.7514 7.44926L25.857 5.81745Z" fill="white"/>
  </g>
  <defs>
    <clipPath id="clip0_1_9162">
      <rect width="40" height="40" fill="white"/>
    </clipPath>
  </defs>
</svg>